<svg width="225" height="152" viewBox="0 0 225 152" fill="none" xmlns="http://www.w3.org/2000/svg">
<path d="M8.44 86H6.064V69.008H11.512C12.328 69.008 13.104 69.096 13.84 69.272C14.576 69.432 15.216 69.696 15.76 70.064C16.32 70.432 16.76 70.92 17.08 71.528C17.4 72.12 17.56 72.848 17.56 73.712C17.56 74.96 17.176 75.968 16.408 76.736C15.64 77.504 14.648 77.992 13.432 78.2L18.184 86H15.304L10.984 78.44H8.44V86ZM8.44 76.448H11.176C11.736 76.448 12.256 76.4 12.736 76.304C13.216 76.208 13.632 76.056 13.984 75.848C14.352 75.624 14.64 75.344 14.848 75.008C15.056 74.656 15.16 74.224 15.16 73.712C15.16 73.2 15.056 72.776 14.848 72.44C14.64 72.088 14.36 71.808 14.008 71.6C13.672 71.392 13.272 71.248 12.808 71.168C12.344 71.072 11.856 71.024 11.344 71.024H8.44V76.448ZM33.5569 79.544C33.5569 80.536 33.3809 81.448 33.0289 82.28C32.6769 83.112 32.1889 83.832 31.5649 84.44C30.9409 85.032 30.2049 85.496 29.3569 85.832C28.5089 86.168 27.5889 86.336 26.5969 86.336C25.6209 86.336 24.7089 86.168 23.8609 85.832C23.0289 85.496 22.3009 85.032 21.6769 84.44C21.0689 83.832 20.5889 83.112 20.2369 82.28C19.8849 81.448 19.7089 80.536 19.7089 79.544C19.7089 78.536 19.8849 77.616 20.2369 76.784C20.5889 75.952 21.0689 75.248 21.6769 74.672C22.3009 74.08 23.0289 73.624 23.8609 73.304C24.7089 72.968 25.6209 72.8 26.5969 72.8C27.5889 72.8 28.5089 72.968 29.3569 73.304C30.2049 73.624 30.9409 74.08 31.5649 74.672C32.1889 75.248 32.6769 75.952 33.0289 76.784C33.3809 77.616 33.5569 78.536 33.5569 79.544ZM31.0849 79.544C31.0849 78.872 30.9809 78.256 30.7729 77.696C30.5649 77.12 30.2609 76.624 29.8609 76.208C29.4769 75.776 29.0049 75.44 28.4449 75.2C27.9009 74.96 27.2849 74.84 26.5969 74.84C25.9249 74.84 25.3169 74.96 24.7729 75.2C24.2289 75.44 23.7649 75.776 23.3809 76.208C22.9969 76.624 22.7009 77.12 22.4929 77.696C22.2849 78.256 22.1809 78.872 22.1809 79.544C22.1809 80.216 22.2849 80.848 22.4929 81.44C22.7009 82.016 22.9969 82.52 23.3809 82.952C23.7649 83.368 24.2289 83.696 24.7729 83.936C25.3169 84.176 25.9249 84.296 26.5969 84.296C27.2849 84.296 27.9009 84.176 28.4449 83.936C29.0049 83.696 29.4769 83.368 29.8609 82.952C30.2609 82.52 30.5649 82.016 30.7729 81.44C30.9809 80.848 31.0849 80.216 31.0849 79.544ZM37.1523 86H34.7283L40.2003 73.136H42.3363L47.7843 86H45.2883L44.0883 83.024H38.3763L37.1523 86ZM39.0723 81.176H43.3683L41.2323 75.776L39.0723 81.176ZM49.8676 73.136H54.4996C55.3636 73.136 56.2116 73.256 57.0436 73.496C57.8756 73.72 58.6196 74.088 59.2756 74.6C59.9316 75.112 60.4596 75.776 60.8596 76.592C61.2596 77.392 61.4596 78.376 61.4596 79.544C61.4596 80.648 61.2516 81.608 60.8356 82.424C60.4356 83.24 59.9076 83.912 59.2516 84.44C58.5956 84.968 57.8436 85.36 56.9956 85.616C56.1636 85.872 55.3156 86 54.4516 86H49.8676V73.136ZM52.1716 84.056H54.0916C54.7956 84.056 55.4436 83.96 56.0356 83.768C56.6436 83.576 57.1636 83.288 57.5956 82.904C58.0436 82.52 58.3876 82.048 58.6276 81.488C58.8836 80.928 59.0116 80.28 59.0116 79.544C59.0116 78.744 58.8836 78.064 58.6276 77.504C58.3716 76.928 58.0196 76.464 57.5716 76.112C57.1396 75.744 56.6196 75.48 56.0116 75.32C55.4196 75.144 54.7796 75.056 54.0916 75.056H52.1716V84.056ZM76.141 86H73.765V71.096H68.317V69.008H81.589V71.096H76.141V86ZM83.9528 86H81.6488V73.136H86.2328C86.8728 73.136 87.4728 73.2 88.0328 73.328C88.6088 73.44 89.1128 73.632 89.5448 73.904C89.9768 74.176 90.3128 74.544 90.5528 75.008C90.8088 75.472 90.9368 76.04 90.9368 76.712C90.9368 77.656 90.6728 78.424 90.1448 79.016C89.6328 79.608 88.9608 80.016 88.1288 80.24L91.4648 86H88.8008L85.8008 80.576H83.9528V86ZM83.9528 78.704H85.9448C86.2968 78.704 86.6328 78.672 86.9528 78.608C87.2728 78.544 87.5528 78.44 87.7928 78.296C88.0488 78.136 88.2488 77.936 88.3928 77.696C88.5368 77.456 88.6088 77.152 88.6088 76.784C88.6088 76.448 88.5368 76.168 88.3928 75.944C88.2648 75.72 88.0808 75.544 87.8408 75.416C87.6168 75.272 87.3528 75.176 87.0488 75.128C86.7448 75.08 86.4248 75.056 86.0888 75.056H83.9528V78.704ZM96.5622 86H94.2582V73.136H96.5622V86ZM100.586 73.136H105.05C106.538 73.136 107.706 73.48 108.554 74.168C109.402 74.84 109.826 75.808 109.826 77.072C109.826 78.384 109.386 79.392 108.506 80.096C107.626 80.784 106.45 81.128 104.978 81.128H102.89V86H100.586V73.136ZM102.89 79.256H104.834C105.65 79.256 106.298 79.08 106.778 78.728C107.274 78.376 107.522 77.84 107.522 77.12C107.522 76.448 107.298 75.936 106.85 75.584C106.402 75.232 105.762 75.056 104.93 75.056H102.89V79.256Z" fill="#333333"/>
<path d="M6.158 113.168H10.448V114H5.222V104.796H6.158V113.168ZM18.1334 110.958C18.1334 111.417 18.0511 111.842 17.8864 112.232C17.7304 112.622 17.5094 112.96 17.2234 113.246C16.9374 113.532 16.5951 113.757 16.1964 113.922C15.7978 114.078 15.3601 114.156 14.8834 114.156C14.4154 114.156 13.9821 114.078 13.5834 113.922C13.1848 113.757 12.8424 113.532 12.5564 113.246C12.2704 112.96 12.0451 112.622 11.8804 112.232C11.7244 111.842 11.6464 111.417 11.6464 110.958C11.6464 110.499 11.7244 110.074 11.8804 109.684C12.0451 109.294 12.2704 108.956 12.5564 108.67C12.8424 108.384 13.1848 108.163 13.5834 108.007C13.9821 107.842 14.4154 107.76 14.8834 107.76C15.3601 107.76 15.7978 107.842 16.1964 108.007C16.5951 108.163 16.9374 108.384 17.2234 108.67C17.5094 108.956 17.7304 109.294 17.8864 109.684C18.0511 110.074 18.1334 110.499 18.1334 110.958ZM17.1974 110.958C17.1974 110.62 17.1411 110.304 17.0284 110.009C16.9244 109.706 16.7728 109.446 16.5734 109.229C16.3741 109.004 16.1314 108.826 15.8454 108.696C15.5594 108.566 15.2388 108.501 14.8834 108.501C14.5281 108.501 14.2074 108.566 13.9214 108.696C13.6441 108.826 13.4058 109.004 13.2064 109.229C13.0071 109.446 12.8511 109.706 12.7384 110.009C12.6344 110.304 12.5824 110.62 12.5824 110.958C12.5824 111.296 12.6344 111.617 12.7384 111.92C12.8511 112.215 13.0071 112.475 13.2064 112.7C13.4058 112.917 13.6441 113.09 13.9214 113.22C14.2074 113.341 14.5281 113.402 14.8834 113.402C15.2388 113.402 15.5594 113.341 15.8454 113.22C16.1314 113.09 16.3741 112.917 16.5734 112.7C16.7728 112.475 16.9244 112.215 17.0284 111.92C17.1411 111.617 17.1974 111.296 17.1974 110.958ZM20.5557 109.255C20.5557 109.09 20.5514 108.878 20.5427 108.618C20.534 108.358 20.521 108.124 20.5037 107.916H21.3487C21.366 108.081 21.379 108.263 21.3877 108.462C21.3964 108.661 21.4007 108.826 21.4007 108.956H21.4267C21.6 108.601 21.86 108.315 22.2067 108.098C22.5534 107.873 22.9434 107.76 23.3767 107.76C23.4894 107.76 23.589 107.764 23.6757 107.773C23.771 107.782 23.8664 107.799 23.9617 107.825L23.8447 108.657C23.7927 108.64 23.706 108.622 23.5847 108.605C23.4634 108.588 23.342 108.579 23.2207 108.579C22.9867 108.579 22.7614 108.622 22.5447 108.709C22.328 108.796 22.1374 108.934 21.9727 109.125C21.8167 109.307 21.6867 109.545 21.5827 109.84C21.4874 110.126 21.4397 110.473 21.4397 110.88V114H20.5557V109.255ZM30.1728 110.49C30.1468 109.918 29.9604 109.446 29.6138 109.073C29.2758 108.692 28.7904 108.501 28.1578 108.501C27.8631 108.501 27.5901 108.557 27.3388 108.67C27.0874 108.774 26.8664 108.921 26.6758 109.112C26.4851 109.294 26.3334 109.506 26.2208 109.749C26.1081 109.983 26.0431 110.23 26.0258 110.49H30.1728ZM31.0698 110.776C31.0698 110.837 31.0698 110.902 31.0698 110.971C31.0698 111.04 31.0654 111.114 31.0568 111.192H26.0128C26.0214 111.495 26.0821 111.781 26.1948 112.05C26.3074 112.319 26.4634 112.553 26.6628 112.752C26.8621 112.951 27.0961 113.112 27.3648 113.233C27.6334 113.346 27.9238 113.402 28.2358 113.402C28.6951 113.402 29.0894 113.298 29.4188 113.09C29.7568 112.873 30.0124 112.626 30.1858 112.349L30.8488 112.869C30.4848 113.328 30.0818 113.658 29.6398 113.857C29.2064 114.056 28.7384 114.156 28.2358 114.156C27.7851 114.156 27.3648 114.078 26.9748 113.922C26.5934 113.757 26.2641 113.532 25.9868 113.246C25.7094 112.96 25.4884 112.622 25.3238 112.232C25.1678 111.842 25.0898 111.417 25.0898 110.958C25.0898 110.499 25.1678 110.074 25.3238 109.684C25.4798 109.294 25.6964 108.956 25.9738 108.67C26.2511 108.384 26.5761 108.163 26.9488 108.007C27.3214 107.842 27.7244 107.76 28.1578 107.76C28.6344 107.76 29.0548 107.842 29.4188 108.007C29.7828 108.163 30.0861 108.38 30.3288 108.657C30.5714 108.926 30.7534 109.242 30.8748 109.606C31.0048 109.97 31.0698 110.36 31.0698 110.776ZM34.3622 108.956C34.5355 108.601 34.7999 108.315 35.1552 108.098C35.5192 107.873 35.9222 107.76 36.3642 107.76C36.5289 107.76 36.6979 107.777 36.8712 107.812C37.0532 107.847 37.2265 107.916 37.3912 108.02C37.5645 108.115 37.7205 108.245 37.8592 108.41C38.0065 108.575 38.1322 108.787 38.2362 109.047C38.4442 108.631 38.7259 108.315 39.0812 108.098C39.4452 107.873 39.8742 107.76 40.3682 107.76C41.1395 107.76 41.7159 107.99 42.0972 108.449C42.4872 108.908 42.6822 109.515 42.6822 110.269V114H41.7982V110.633C41.7982 109.992 41.6769 109.476 41.4342 109.086C41.2002 108.696 40.7972 108.501 40.2252 108.501C39.9045 108.501 39.6315 108.566 39.4062 108.696C39.1895 108.826 39.0119 108.999 38.8732 109.216C38.7432 109.424 38.6479 109.662 38.5872 109.931C38.5265 110.2 38.4962 110.477 38.4962 110.763V114H37.6122V110.451C37.6122 110.156 37.5905 109.888 37.5472 109.645C37.5039 109.402 37.4259 109.199 37.3132 109.034C37.2092 108.861 37.0619 108.731 36.8712 108.644C36.6805 108.549 36.4379 108.501 36.1432 108.501C35.9352 108.501 35.7229 108.549 35.5062 108.644C35.2982 108.739 35.1075 108.887 34.9342 109.086C34.7695 109.277 34.6352 109.524 34.5312 109.827C34.4272 110.122 34.3752 110.473 34.3752 110.88V114H33.4912V109.255C33.4912 109.09 33.4869 108.878 33.4782 108.618C33.4695 108.358 33.4565 108.124 33.4392 107.916H34.2842C34.3015 108.081 34.3145 108.263 34.3232 108.462C34.3319 108.661 34.3362 108.826 34.3362 108.956H34.3622ZM50.1548 114H49.2708V107.916H50.1548V114ZM50.3368 105.576C50.3368 105.758 50.2718 105.91 50.1418 106.031C50.0118 106.144 49.8688 106.2 49.7128 106.2C49.5568 106.2 49.4138 106.144 49.2838 106.031C49.1538 105.91 49.0888 105.758 49.0888 105.576C49.0888 105.394 49.1538 105.247 49.2838 105.134C49.4138 105.013 49.5568 104.952 49.7128 104.952C49.8688 104.952 50.0118 105.013 50.1418 105.134C50.2718 105.247 50.3368 105.394 50.3368 105.576ZM53.9118 117.12H53.0278V107.916H53.9118V108.969H53.9508C54.2021 108.57 54.5358 108.271 54.9518 108.072C55.3764 107.864 55.8054 107.76 56.2388 107.76C56.7154 107.76 57.1444 107.842 57.5258 108.007C57.9158 108.172 58.2451 108.397 58.5138 108.683C58.7911 108.969 59.0034 109.307 59.1508 109.697C59.3068 110.087 59.3848 110.507 59.3848 110.958C59.3848 111.409 59.3068 111.829 59.1508 112.219C59.0034 112.609 58.7911 112.947 58.5138 113.233C58.2451 113.519 57.9158 113.744 57.5258 113.909C57.1444 114.074 56.7154 114.156 56.2388 114.156C55.8054 114.156 55.3764 114.056 54.9518 113.857C54.5358 113.649 54.2021 113.354 53.9508 112.973H53.9118V117.12ZM58.4488 110.958C58.4488 110.62 58.3968 110.304 58.2928 110.009C58.1888 109.706 58.0371 109.446 57.8378 109.229C57.6471 109.004 57.4088 108.826 57.1228 108.696C56.8368 108.566 56.5118 108.501 56.1478 108.501C55.8098 108.501 55.4978 108.566 55.2118 108.696C54.9258 108.817 54.6788 108.991 54.4708 109.216C54.2628 109.433 54.0981 109.693 53.9768 109.996C53.8641 110.291 53.8078 110.611 53.8078 110.958C53.8078 111.305 53.8641 111.63 53.9768 111.933C54.0981 112.228 54.2628 112.483 54.4708 112.7C54.6788 112.917 54.9258 113.09 55.2118 113.22C55.4978 113.341 55.8098 113.402 56.1478 113.402C56.5118 113.402 56.8368 113.341 57.1228 113.22C57.4088 113.09 57.6471 112.917 57.8378 112.7C58.0371 112.475 58.1888 112.215 58.2928 111.92C58.3968 111.617 58.4488 111.296 58.4488 110.958ZM65.0367 109.359C64.9067 109.108 64.7074 108.904 64.4387 108.748C64.1787 108.583 63.8797 108.501 63.5417 108.501C63.3857 108.501 63.2297 108.518 63.0737 108.553C62.9177 108.588 62.7791 108.644 62.6577 108.722C62.5364 108.8 62.4367 108.9 62.3587 109.021C62.2894 109.142 62.2547 109.285 62.2547 109.45C62.2547 109.736 62.3717 109.957 62.6057 110.113C62.8397 110.26 63.2081 110.386 63.7107 110.49C64.4301 110.637 64.9587 110.854 65.2967 111.14C65.6434 111.417 65.8167 111.794 65.8167 112.271C65.8167 112.618 65.7474 112.912 65.6087 113.155C65.4787 113.389 65.3054 113.584 65.0887 113.74C64.8721 113.887 64.6251 113.991 64.3477 114.052C64.0791 114.121 63.8061 114.156 63.5287 114.156C63.0694 114.156 62.6231 114.061 62.1897 113.87C61.7564 113.679 61.4011 113.38 61.1237 112.973L61.8257 112.453C61.9817 112.722 62.2114 112.947 62.5147 113.129C62.8181 113.311 63.1517 113.402 63.5157 113.402C63.7064 113.402 63.8884 113.385 64.0617 113.35C64.2351 113.315 64.3867 113.255 64.5167 113.168C64.6467 113.081 64.7507 112.973 64.8287 112.843C64.9067 112.704 64.9457 112.535 64.9457 112.336C64.9457 112.015 64.7897 111.777 64.4777 111.621C64.1744 111.456 63.7324 111.305 63.1517 111.166C62.9697 111.123 62.7747 111.071 62.5667 111.01C62.3674 110.941 62.1811 110.845 62.0077 110.724C61.8344 110.594 61.6914 110.434 61.5787 110.243C61.4661 110.052 61.4097 109.814 61.4097 109.528C61.4097 109.216 61.4704 108.952 61.5917 108.735C61.7131 108.51 61.8734 108.328 62.0727 108.189C62.2807 108.042 62.5147 107.933 62.7747 107.864C63.0347 107.795 63.3034 107.76 63.5807 107.76C64.0054 107.76 64.4171 107.855 64.8157 108.046C65.2144 108.237 65.5134 108.505 65.7127 108.852L65.0367 109.359ZM72.5161 114C72.4988 113.835 72.4858 113.653 72.4771 113.454C72.4684 113.255 72.4641 113.09 72.4641 112.96H72.4381C72.2648 113.315 71.9831 113.606 71.5931 113.831C71.2031 114.048 70.7914 114.156 70.3581 114.156C69.5868 114.156 69.0061 113.926 68.6161 113.467C68.2348 113.008 68.0441 112.401 68.0441 111.647V107.916H68.9281V111.283C68.9281 111.604 68.9541 111.894 69.0061 112.154C69.0581 112.414 69.1448 112.639 69.2661 112.83C69.3961 113.012 69.5651 113.155 69.7731 113.259C69.9898 113.363 70.2584 113.415 70.5791 113.415C70.8131 113.415 71.0384 113.367 71.2551 113.272C71.4804 113.177 71.6798 113.034 71.8531 112.843C72.0264 112.644 72.1651 112.397 72.2691 112.102C72.3731 111.799 72.4251 111.443 72.4251 111.036V107.916H73.3091V112.661C73.3091 112.826 73.3134 113.038 73.3221 113.298C73.3308 113.558 73.3438 113.792 73.3611 114H72.5161ZM77.0408 108.956C77.2141 108.601 77.4785 108.315 77.8338 108.098C78.1978 107.873 78.6008 107.76 79.0428 107.76C79.2075 107.76 79.3765 107.777 79.5498 107.812C79.7318 107.847 79.9051 107.916 80.0698 108.02C80.2431 108.115 80.3991 108.245 80.5378 108.41C80.6851 108.575 80.8108 108.787 80.9148 109.047C81.1228 108.631 81.4045 108.315 81.7598 108.098C82.1238 107.873 82.5528 107.76 83.0468 107.76C83.8181 107.76 84.3945 107.99 84.7758 108.449C85.1658 108.908 85.3608 109.515 85.3608 110.269V114H84.4768V110.633C84.4768 109.992 84.3555 109.476 84.1128 109.086C83.8788 108.696 83.4758 108.501 82.9038 108.501C82.5831 108.501 82.3101 108.566 82.0848 108.696C81.8681 108.826 81.6905 108.999 81.5518 109.216C81.4218 109.424 81.3265 109.662 81.2658 109.931C81.2051 110.2 81.1748 110.477 81.1748 110.763V114H80.2908V110.451C80.2908 110.156 80.2691 109.888 80.2258 109.645C80.1825 109.402 80.1045 109.199 79.9918 109.034C79.8878 108.861 79.7405 108.731 79.5498 108.644C79.3591 108.549 79.1165 108.501 78.8218 108.501C78.6138 108.501 78.4015 108.549 78.1848 108.644C77.9768 108.739 77.7861 108.887 77.6128 109.086C77.4481 109.277 77.3138 109.524 77.2098 109.827C77.1058 110.122 77.0538 110.473 77.0538 110.88V114H76.1698V109.255C76.1698 109.09 76.1655 108.878 76.1568 108.618C76.1481 108.358 76.1351 108.124 76.1178 107.916H76.9628C76.9801 108.081 76.9931 108.263 77.0018 108.462C77.0105 108.661 77.0148 108.826 77.0148 108.956H77.0408ZM96.9414 112.973C96.6814 113.363 96.3434 113.658 95.9274 113.857C95.5114 114.056 95.0824 114.156 94.6404 114.156C94.1637 114.156 93.7304 114.074 93.3404 113.909C92.959 113.744 92.6297 113.519 92.3524 113.233C92.0837 112.947 91.8714 112.609 91.7154 112.219C91.568 111.829 91.4944 111.409 91.4944 110.958C91.4944 110.507 91.568 110.087 91.7154 109.697C91.8714 109.307 92.0837 108.969 92.3524 108.683C92.6297 108.397 92.959 108.172 93.3404 108.007C93.7304 107.842 94.1637 107.76 94.6404 107.76C95.0824 107.76 95.5114 107.864 95.9274 108.072C96.3434 108.271 96.6814 108.57 96.9414 108.969H96.9674V104.172H97.8514V114H96.9674V112.973H96.9414ZM92.4304 110.958C92.4304 111.296 92.4824 111.617 92.5864 111.92C92.6904 112.215 92.8377 112.475 93.0284 112.7C93.2277 112.917 93.4704 113.09 93.7564 113.22C94.0424 113.341 94.3674 113.402 94.7314 113.402C95.0694 113.402 95.3814 113.341 95.6674 113.22C95.9534 113.09 96.2004 112.917 96.4084 112.7C96.6164 112.483 96.7767 112.228 96.8894 111.933C97.0107 111.63 97.0714 111.305 97.0714 110.958C97.0714 110.611 97.0107 110.291 96.8894 109.996C96.7767 109.693 96.6164 109.433 96.4084 109.216C96.2004 108.991 95.9534 108.817 95.6674 108.696C95.3814 108.566 95.0694 108.501 94.7314 108.501C94.3674 108.501 94.0424 108.566 93.7564 108.696C93.4704 108.826 93.2277 109.004 93.0284 109.229C92.8377 109.446 92.6904 109.706 92.5864 110.009C92.4824 110.304 92.4304 110.62 92.4304 110.958ZM106.779 110.958C106.779 111.417 106.696 111.842 106.532 112.232C106.376 112.622 106.155 112.96 105.869 113.246C105.583 113.532 105.24 113.757 104.842 113.922C104.443 114.078 104.005 114.156 103.529 114.156C103.061 114.156 102.627 114.078 102.229 113.922C101.83 113.757 101.488 113.532 101.202 113.246C100.916 112.96 100.69 112.622 100.526 112.232C100.37 111.842 100.292 111.417 100.292 110.958C100.292 110.499 100.37 110.074 100.526 109.684C100.69 109.294 100.916 108.956 101.202 108.67C101.488 108.384 101.83 108.163 102.229 108.007C102.627 107.842 103.061 107.76 103.529 107.76C104.005 107.76 104.443 107.842 104.842 108.007C105.24 108.163 105.583 108.384 105.869 108.67C106.155 108.956 106.376 109.294 106.532 109.684C106.696 110.074 106.779 110.499 106.779 110.958ZM105.843 110.958C105.843 110.62 105.786 110.304 105.674 110.009C105.57 109.706 105.418 109.446 105.219 109.229C105.019 109.004 104.777 108.826 104.491 108.696C104.205 108.566 103.884 108.501 103.529 108.501C103.173 108.501 102.853 108.566 102.567 108.696C102.289 108.826 102.051 109.004 101.852 109.229C101.652 109.446 101.496 109.706 101.384 110.009C101.28 110.304 101.228 110.62 101.228 110.958C101.228 111.296 101.28 111.617 101.384 111.92C101.496 112.215 101.652 112.475 101.852 112.7C102.051 112.917 102.289 113.09 102.567 113.22C102.853 113.341 103.173 113.402 103.529 113.402C103.884 113.402 104.205 113.341 104.491 113.22C104.777 113.09 105.019 112.917 105.219 112.7C105.418 112.475 105.57 112.215 105.674 111.92C105.786 111.617 105.843 111.296 105.843 110.958ZM110.111 114H109.227V104.172H110.111V114ZM119.041 110.958C119.041 111.417 118.959 111.842 118.794 112.232C118.638 112.622 118.417 112.96 118.131 113.246C117.845 113.532 117.503 113.757 117.104 113.922C116.706 114.078 116.268 114.156 115.791 114.156C115.323 114.156 114.89 114.078 114.491 113.922C114.093 113.757 113.75 113.532 113.464 113.246C113.178 112.96 112.953 112.622 112.788 112.232C112.632 111.842 112.554 111.417 112.554 110.958C112.554 110.499 112.632 110.074 112.788 109.684C112.953 109.294 113.178 108.956 113.464 108.67C113.75 108.384 114.093 108.163 114.491 108.007C114.89 107.842 115.323 107.76 115.791 107.76C116.268 107.76 116.706 107.842 117.104 108.007C117.503 108.163 117.845 108.384 118.131 108.67C118.417 108.956 118.638 109.294 118.794 109.684C118.959 110.074 119.041 110.499 119.041 110.958ZM118.105 110.958C118.105 110.62 118.049 110.304 117.936 110.009C117.832 109.706 117.681 109.446 117.481 109.229C117.282 109.004 117.039 108.826 116.753 108.696C116.467 108.566 116.147 108.501 115.791 108.501C115.436 108.501 115.115 108.566 114.829 108.696C114.552 108.826 114.314 109.004 114.114 109.229C113.915 109.446 113.759 109.706 113.646 110.009C113.542 110.304 113.49 110.62 113.49 110.958C113.49 111.296 113.542 111.617 113.646 111.92C113.759 112.215 113.915 112.475 114.114 112.7C114.314 112.917 114.552 113.09 114.829 113.22C115.115 113.341 115.436 113.402 115.791 113.402C116.147 113.402 116.467 113.341 116.753 113.22C117.039 113.09 117.282 112.917 117.481 112.7C117.681 112.475 117.832 112.215 117.936 111.92C118.049 111.617 118.105 111.296 118.105 110.958ZM121.464 109.255C121.464 109.09 121.459 108.878 121.451 108.618C121.442 108.358 121.429 108.124 121.412 107.916H122.257C122.274 108.081 122.287 108.263 122.296 108.462C122.304 108.661 122.309 108.826 122.309 108.956H122.335C122.508 108.601 122.768 108.315 123.115 108.098C123.461 107.873 123.851 107.76 124.285 107.76C124.397 107.76 124.497 107.764 124.584 107.773C124.679 107.782 124.774 107.799 124.87 107.825L124.753 108.657C124.701 108.64 124.614 108.622 124.493 108.605C124.371 108.588 124.25 108.579 124.129 108.579C123.895 108.579 123.669 108.622 123.453 108.709C123.236 108.796 123.045 108.934 122.881 109.125C122.725 109.307 122.595 109.545 122.491 109.84C122.395 110.126 122.348 110.473 122.348 110.88V114H121.464V109.255ZM133.675 109.359C133.545 109.108 133.346 108.904 133.077 108.748C132.817 108.583 132.518 108.501 132.18 108.501C132.024 108.501 131.868 108.518 131.712 108.553C131.556 108.588 131.418 108.644 131.296 108.722C131.175 108.8 131.075 108.9 130.997 109.021C130.928 109.142 130.893 109.285 130.893 109.45C130.893 109.736 131.01 109.957 131.244 110.113C131.478 110.26 131.847 110.386 132.349 110.49C133.069 110.637 133.597 110.854 133.935 111.14C134.282 111.417 134.455 111.794 134.455 112.271C134.455 112.618 134.386 112.912 134.247 113.155C134.117 113.389 133.944 113.584 133.727 113.74C133.511 113.887 133.264 113.991 132.986 114.052C132.718 114.121 132.445 114.156 132.167 114.156C131.708 114.156 131.262 114.061 130.828 113.87C130.395 113.679 130.04 113.38 129.762 112.973L130.464 112.453C130.62 112.722 130.85 112.947 131.153 113.129C131.457 113.311 131.79 113.402 132.154 113.402C132.345 113.402 132.527 113.385 132.7 113.35C132.874 113.315 133.025 113.255 133.155 113.168C133.285 113.081 133.389 112.973 133.467 112.843C133.545 112.704 133.584 112.535 133.584 112.336C133.584 112.015 133.428 111.777 133.116 111.621C132.813 111.456 132.371 111.305 131.79 111.166C131.608 111.123 131.413 111.071 131.205 111.01C131.006 110.941 130.82 110.845 130.646 110.724C130.473 110.594 130.33 110.434 130.217 110.243C130.105 110.052 130.048 109.814 130.048 109.528C130.048 109.216 130.109 108.952 130.23 108.735C130.352 108.51 130.512 108.328 130.711 108.189C130.919 108.042 131.153 107.933 131.413 107.864C131.673 107.795 131.942 107.76 132.219 107.76C132.644 107.76 133.056 107.855 133.454 108.046C133.853 108.237 134.152 108.505 134.351 108.852L133.675 109.359ZM137.632 114H136.748V107.916H137.632V114ZM137.814 105.576C137.814 105.758 137.749 105.91 137.619 106.031C137.489 106.144 137.346 106.2 137.19 106.2C137.034 106.2 136.891 106.144 136.761 106.031C136.631 105.91 136.566 105.758 136.566 105.576C136.566 105.394 136.631 105.247 136.761 105.134C136.891 105.013 137.034 104.952 137.19 104.952C137.346 104.952 137.489 105.013 137.619 105.134C137.749 105.247 137.814 105.394 137.814 105.576ZM143.248 108.657H141.532V112.206C141.532 112.431 141.553 112.618 141.597 112.765C141.64 112.912 141.701 113.029 141.779 113.116C141.865 113.194 141.965 113.25 142.078 113.285C142.19 113.311 142.312 113.324 142.442 113.324C142.563 113.324 142.689 113.307 142.819 113.272C142.957 113.237 143.087 113.19 143.209 113.129L143.248 113.896C143.092 113.957 142.927 114 142.754 114.026C142.589 114.061 142.407 114.078 142.208 114.078C142.043 114.078 141.87 114.056 141.688 114.013C141.506 113.97 141.337 113.887 141.181 113.766C141.025 113.645 140.895 113.48 140.791 113.272C140.695 113.064 140.648 112.791 140.648 112.453V108.657H139.387V107.916H140.648V106.2H141.532V107.916H143.248V108.657ZM152.756 110.074C152.756 109.545 152.617 109.151 152.34 108.891C152.062 108.631 151.659 108.501 151.131 108.501C150.767 108.501 150.429 108.566 150.117 108.696C149.805 108.826 149.54 108.999 149.324 109.216L148.83 108.631C149.081 108.38 149.41 108.172 149.818 108.007C150.234 107.842 150.702 107.76 151.222 107.76C151.551 107.76 151.859 107.808 152.145 107.903C152.431 107.99 152.682 108.124 152.899 108.306C153.115 108.488 153.284 108.718 153.406 108.995C153.527 109.272 153.588 109.597 153.588 109.97V112.635C153.588 112.869 153.596 113.112 153.614 113.363C153.631 113.614 153.657 113.827 153.692 114H152.899C152.873 113.853 152.851 113.692 152.834 113.519C152.816 113.346 152.808 113.177 152.808 113.012H152.782C152.504 113.419 152.188 113.714 151.833 113.896C151.486 114.069 151.066 114.156 150.572 114.156C150.338 114.156 150.095 114.121 149.844 114.052C149.601 113.991 149.376 113.887 149.168 113.74C148.968 113.593 148.799 113.402 148.661 113.168C148.531 112.934 148.466 112.648 148.466 112.31C148.466 111.842 148.583 111.474 148.817 111.205C149.059 110.928 149.38 110.724 149.779 110.594C150.177 110.455 150.632 110.369 151.144 110.334C151.664 110.291 152.201 110.269 152.756 110.269V110.074ZM152.496 110.958C152.132 110.958 151.763 110.975 151.391 111.01C151.027 111.036 150.693 111.097 150.39 111.192C150.095 111.279 149.852 111.409 149.662 111.582C149.471 111.755 149.376 111.985 149.376 112.271C149.376 112.488 149.415 112.67 149.493 112.817C149.579 112.964 149.692 113.086 149.831 113.181C149.969 113.268 150.121 113.333 150.286 113.376C150.459 113.411 150.632 113.428 150.806 113.428C151.118 113.428 151.395 113.376 151.638 113.272C151.88 113.159 152.084 113.012 152.249 112.83C152.413 112.639 152.539 112.423 152.626 112.18C152.712 111.937 152.756 111.682 152.756 111.413V110.958H152.496ZM157.256 108.956C157.429 108.601 157.694 108.315 158.049 108.098C158.413 107.873 158.816 107.76 159.258 107.76C159.423 107.76 159.592 107.777 159.765 107.812C159.947 107.847 160.12 107.916 160.285 108.02C160.458 108.115 160.614 108.245 160.753 108.41C160.9 108.575 161.026 108.787 161.13 109.047C161.338 108.631 161.62 108.315 161.975 108.098C162.339 107.873 162.768 107.76 163.262 107.76C164.033 107.76 164.61 107.99 164.991 108.449C165.381 108.908 165.576 109.515 165.576 110.269V114H164.692V110.633C164.692 109.992 164.571 109.476 164.328 109.086C164.094 108.696 163.691 108.501 163.119 108.501C162.798 108.501 162.525 108.566 162.3 108.696C162.083 108.826 161.906 108.999 161.767 109.216C161.637 109.424 161.542 109.662 161.481 109.931C161.42 110.2 161.39 110.477 161.39 110.763V114H160.506V110.451C160.506 110.156 160.484 109.888 160.441 109.645C160.398 109.402 160.32 109.199 160.207 109.034C160.103 108.861 159.956 108.731 159.765 108.644C159.574 108.549 159.332 108.501 159.037 108.501C158.829 108.501 158.617 108.549 158.4 108.644C158.192 108.739 158.001 108.887 157.828 109.086C157.663 109.277 157.529 109.524 157.425 109.827C157.321 110.122 157.269 110.473 157.269 110.88V114H156.385V109.255C156.385 109.09 156.381 108.878 156.372 108.618C156.363 108.358 156.35 108.124 156.333 107.916H157.178C157.195 108.081 157.208 108.263 157.217 108.462C157.226 108.661 157.23 108.826 157.23 108.956H157.256ZM173.022 110.49C172.996 109.918 172.81 109.446 172.463 109.073C172.125 108.692 171.64 108.501 171.007 108.501C170.713 108.501 170.44 108.557 170.188 108.67C169.937 108.774 169.716 108.921 169.525 109.112C169.335 109.294 169.183 109.506 169.07 109.749C168.958 109.983 168.893 110.23 168.875 110.49H173.022ZM173.919 110.776C173.919 110.837 173.919 110.902 173.919 110.971C173.919 111.04 173.915 111.114 173.906 111.192H168.862C168.871 111.495 168.932 111.781 169.044 112.05C169.157 112.319 169.313 112.553 169.512 112.752C169.712 112.951 169.946 113.112 170.214 113.233C170.483 113.346 170.773 113.402 171.085 113.402C171.545 113.402 171.939 113.298 172.268 113.09C172.606 112.873 172.862 112.626 173.035 112.349L173.698 112.869C173.334 113.328 172.931 113.658 172.489 113.857C172.056 114.056 171.588 114.156 171.085 114.156C170.635 114.156 170.214 114.078 169.824 113.922C169.443 113.757 169.114 113.532 168.836 113.246C168.559 112.96 168.338 112.622 168.173 112.232C168.017 111.842 167.939 111.417 167.939 110.958C167.939 110.499 168.017 110.074 168.173 109.684C168.329 109.294 168.546 108.956 168.823 108.67C169.101 108.384 169.426 108.163 169.798 108.007C170.171 107.842 170.574 107.76 171.007 107.76C171.484 107.76 171.904 107.842 172.268 108.007C172.632 108.163 172.936 108.38 173.178 108.657C173.421 108.926 173.603 109.242 173.724 109.606C173.854 109.97 173.919 110.36 173.919 110.776ZM179.084 108.657H177.368V112.206C177.368 112.431 177.39 112.618 177.433 112.765C177.476 112.912 177.537 113.029 177.615 113.116C177.702 113.194 177.801 113.25 177.914 113.285C178.027 113.311 178.148 113.324 178.278 113.324C178.399 113.324 178.525 113.307 178.655 113.272C178.794 113.237 178.924 113.19 179.045 113.129L179.084 113.896C178.928 113.957 178.763 114 178.59 114.026C178.425 114.061 178.243 114.078 178.044 114.078C177.879 114.078 177.706 114.056 177.524 114.013C177.342 113.97 177.173 113.887 177.017 113.766C176.861 113.645 176.731 113.48 176.627 113.272C176.532 113.064 176.484 112.791 176.484 112.453V108.657H175.223V107.916H176.484V106.2H177.368V107.916H179.084V108.657ZM181.143 115.82H180.402L181.273 112.765H182.196L181.143 115.82ZM9.551 126.307C9.40367 126.073 9.187 125.882 8.901 125.735C8.62367 125.579 8.32033 125.501 7.991 125.501C7.63567 125.501 7.315 125.566 7.029 125.696C6.743 125.817 6.496 125.991 6.288 126.216C6.08867 126.433 5.93267 126.693 5.82 126.996C5.716 127.291 5.664 127.611 5.664 127.958C5.664 128.305 5.716 128.625 5.82 128.92C5.93267 129.215 6.08867 129.475 6.288 129.7C6.48733 129.917 6.73 130.09 7.016 130.22C7.302 130.341 7.62267 130.402 7.978 130.402C8.368 130.402 8.69733 130.328 8.966 130.181C9.23467 130.034 9.45567 129.843 9.629 129.609L10.292 130.103C10.032 130.424 9.71133 130.679 9.33 130.87C8.95733 131.061 8.50667 131.156 7.978 131.156C7.484 131.156 7.03767 131.078 6.639 130.922C6.24033 130.757 5.898 130.532 5.612 130.246C5.33467 129.96 5.118 129.622 4.962 129.232C4.806 128.842 4.728 128.417 4.728 127.958C4.728 127.499 4.806 127.074 4.962 126.684C5.118 126.294 5.33467 125.956 5.612 125.67C5.898 125.384 6.24033 125.163 6.639 125.007C7.03767 124.842 7.484 124.76 7.978 124.76C8.38533 124.76 8.797 124.851 9.213 125.033C9.63767 125.206 9.98 125.466 10.24 125.813L9.551 126.307ZM18.235 127.958C18.235 128.417 18.1527 128.842 17.988 129.232C17.832 129.622 17.611 129.96 17.325 130.246C17.039 130.532 16.6967 130.757 16.298 130.922C15.8993 131.078 15.4617 131.156 14.985 131.156C14.517 131.156 14.0837 131.078 13.685 130.922C13.2863 130.757 12.944 130.532 12.658 130.246C12.372 129.96 12.1467 129.622 11.982 129.232C11.826 128.842 11.748 128.417 11.748 127.958C11.748 127.499 11.826 127.074 11.982 126.684C12.1467 126.294 12.372 125.956 12.658 125.67C12.944 125.384 13.2863 125.163 13.685 125.007C14.0837 124.842 14.517 124.76 14.985 124.76C15.4617 124.76 15.8993 124.842 16.298 125.007C16.6967 125.163 17.039 125.384 17.325 125.67C17.611 125.956 17.832 126.294 17.988 126.684C18.1527 127.074 18.235 127.499 18.235 127.958ZM17.299 127.958C17.299 127.62 17.2427 127.304 17.13 127.009C17.026 126.706 16.8743 126.446 16.675 126.229C16.4757 126.004 16.233 125.826 15.947 125.696C15.661 125.566 15.3403 125.501 14.985 125.501C14.6297 125.501 14.309 125.566 14.023 125.696C13.7457 125.826 13.5073 126.004 13.308 126.229C13.1087 126.446 12.9527 126.706 12.84 127.009C12.736 127.304 12.684 127.62 12.684 127.958C12.684 128.296 12.736 128.617 12.84 128.92C12.9527 129.215 13.1087 129.475 13.308 129.7C13.5073 129.917 13.7457 130.09 14.023 130.22C14.309 130.341 14.6297 130.402 14.985 130.402C15.3403 130.402 15.661 130.341 15.947 130.22C16.233 130.09 16.4757 129.917 16.675 129.7C16.8743 129.475 17.026 129.215 17.13 128.92C17.2427 128.617 17.299 128.296 17.299 127.958ZM21.4503 124.916C21.4676 125.081 21.4806 125.263 21.4893 125.462C21.4979 125.661 21.5023 125.826 21.5023 125.956H21.5283C21.7016 125.601 21.9833 125.315 22.3733 125.098C22.7633 124.873 23.1749 124.76 23.6083 124.76C24.3796 124.76 24.9559 124.99 25.3373 125.449C25.7273 125.908 25.9223 126.515 25.9223 127.269V131H25.0383V127.633C25.0383 127.312 25.0123 127.022 24.9603 126.762C24.9083 126.502 24.8173 126.281 24.6873 126.099C24.5659 125.908 24.3969 125.761 24.1803 125.657C23.9723 125.553 23.7079 125.501 23.3873 125.501C23.1533 125.501 22.9236 125.549 22.6983 125.644C22.4816 125.739 22.2866 125.887 22.1133 126.086C21.9399 126.277 21.8013 126.524 21.6973 126.827C21.5933 127.122 21.5413 127.473 21.5413 127.88V131H20.6573V126.255C20.6573 126.09 20.6529 125.878 20.6443 125.618C20.6356 125.358 20.6226 125.124 20.6053 124.916H21.4503ZM31.968 126.359C31.838 126.108 31.6386 125.904 31.37 125.748C31.11 125.583 30.811 125.501 30.473 125.501C30.317 125.501 30.161 125.518 30.005 125.553C29.849 125.588 29.7103 125.644 29.589 125.722C29.4676 125.8 29.368 125.9 29.29 126.021C29.2206 126.142 29.186 126.285 29.186 126.45C29.186 126.736 29.303 126.957 29.537 127.113C29.771 127.26 30.1393 127.386 30.642 127.49C31.3613 127.637 31.89 127.854 32.228 128.14C32.5746 128.417 32.748 128.794 32.748 129.271C32.748 129.618 32.6786 129.912 32.54 130.155C32.41 130.389 32.2366 130.584 32.02 130.74C31.8033 130.887 31.5563 130.991 31.279 131.052C31.0103 131.121 30.7373 131.156 30.46 131.156C30.0006 131.156 29.5543 131.061 29.121 130.87C28.6876 130.679 28.3323 130.38 28.055 129.973L28.757 129.453C28.913 129.722 29.1426 129.947 29.446 130.129C29.7493 130.311 30.083 130.402 30.447 130.402C30.6376 130.402 30.8196 130.385 30.993 130.35C31.1663 130.315 31.318 130.255 31.448 130.168C31.578 130.081 31.682 129.973 31.76 129.843C31.838 129.704 31.877 129.535 31.877 129.336C31.877 129.015 31.721 128.777 31.409 128.621C31.1056 128.456 30.6636 128.305 30.083 128.166C29.901 128.123 29.706 128.071 29.498 128.01C29.2986 127.941 29.1123 127.845 28.939 127.724C28.7656 127.594 28.6226 127.434 28.51 127.243C28.3973 127.052 28.341 126.814 28.341 126.528C28.341 126.216 28.4016 125.952 28.523 125.735C28.6443 125.51 28.8046 125.328 29.004 125.189C29.212 125.042 29.446 124.933 29.706 124.864C29.966 124.795 30.2346 124.76 30.512 124.76C30.9366 124.76 31.3483 124.855 31.747 125.046C32.1456 125.237 32.4446 125.505 32.644 125.852L31.968 126.359ZM39.6683 127.49C39.6423 126.918 39.456 126.446 39.1093 126.073C38.7713 125.692 38.286 125.501 37.6533 125.501C37.3587 125.501 37.0857 125.557 36.8343 125.67C36.583 125.774 36.362 125.921 36.1713 126.112C35.9807 126.294 35.829 126.506 35.7163 126.749C35.6037 126.983 35.5387 127.23 35.5213 127.49H39.6683ZM40.5653 127.776C40.5653 127.837 40.5653 127.902 40.5653 127.971C40.5653 128.04 40.561 128.114 40.5523 128.192H35.5083C35.517 128.495 35.5777 128.781 35.6903 129.05C35.803 129.319 35.959 129.553 36.1583 129.752C36.3577 129.951 36.5917 130.112 36.8603 130.233C37.129 130.346 37.4193 130.402 37.7313 130.402C38.1907 130.402 38.585 130.298 38.9143 130.09C39.2523 129.873 39.508 129.626 39.6813 129.349L40.3443 129.869C39.9803 130.328 39.5773 130.658 39.1353 130.857C38.702 131.056 38.234 131.156 37.7313 131.156C37.2807 131.156 36.8603 131.078 36.4703 130.922C36.089 130.757 35.7597 130.532 35.4823 130.246C35.205 129.96 34.984 129.622 34.8193 129.232C34.6633 128.842 34.5853 128.417 34.5853 127.958C34.5853 127.499 34.6633 127.074 34.8193 126.684C34.9753 126.294 35.192 125.956 35.4693 125.67C35.7467 125.384 36.0717 125.163 36.4443 125.007C36.817 124.842 37.22 124.76 37.6533 124.76C38.13 124.76 38.5503 124.842 38.9143 125.007C39.2783 125.163 39.5817 125.38 39.8243 125.657C40.067 125.926 40.249 126.242 40.3703 126.606C40.5003 126.97 40.5653 127.36 40.5653 127.776ZM47.3678 126.307C47.2205 126.073 47.0038 125.882 46.7178 125.735C46.4405 125.579 46.1371 125.501 45.8078 125.501C45.4525 125.501 45.1318 125.566 44.8458 125.696C44.5598 125.817 44.3128 125.991 44.1048 126.216C43.9055 126.433 43.7495 126.693 43.6368 126.996C43.5328 127.291 43.4808 127.611 43.4808 127.958C43.4808 128.305 43.5328 128.625 43.6368 128.92C43.7495 129.215 43.9055 129.475 44.1048 129.7C44.3041 129.917 44.5468 130.09 44.8328 130.22C45.1188 130.341 45.4395 130.402 45.7948 130.402C46.1848 130.402 46.5141 130.328 46.7828 130.181C47.0515 130.034 47.2725 129.843 47.4458 129.609L48.1088 130.103C47.8488 130.424 47.5281 130.679 47.1468 130.87C46.7741 131.061 46.3235 131.156 45.7948 131.156C45.3008 131.156 44.8545 131.078 44.4558 130.922C44.0571 130.757 43.7148 130.532 43.4288 130.246C43.1515 129.96 42.9348 129.622 42.7788 129.232C42.6228 128.842 42.5448 128.417 42.5448 127.958C42.5448 127.499 42.6228 127.074 42.7788 126.684C42.9348 126.294 43.1515 125.956 43.4288 125.67C43.7148 125.384 44.0571 125.163 44.4558 125.007C44.8545 124.842 45.3008 124.76 45.7948 124.76C46.2021 124.76 46.6138 124.851 47.0298 125.033C47.4545 125.206 47.7968 125.466 48.0568 125.813L47.3678 126.307ZM52.7498 125.657H51.0338V129.206C51.0338 129.431 51.0555 129.618 51.0988 129.765C51.1421 129.912 51.2028 130.029 51.2808 130.116C51.3675 130.194 51.4671 130.25 51.5798 130.285C51.6925 130.311 51.8138 130.324 51.9438 130.324C52.0651 130.324 52.1908 130.307 52.3208 130.272C52.4595 130.237 52.5895 130.19 52.7108 130.129L52.7498 130.896C52.5938 130.957 52.4291 131 52.2558 131.026C52.0911 131.061 51.9091 131.078 51.7098 131.078C51.5451 131.078 51.3718 131.056 51.1898 131.013C51.0078 130.97 50.8388 130.887 50.6828 130.766C50.5268 130.645 50.3968 130.48 50.2928 130.272C50.1975 130.064 50.1498 129.791 50.1498 129.453V125.657H48.8888V124.916H50.1498V123.2H51.0338V124.916H52.7498V125.657ZM59.2938 127.49C59.2678 126.918 59.0814 126.446 58.7348 126.073C58.3968 125.692 57.9114 125.501 57.2788 125.501C56.9841 125.501 56.7111 125.557 56.4598 125.67C56.2084 125.774 55.9874 125.921 55.7968 126.112C55.6061 126.294 55.4544 126.506 55.3418 126.749C55.2291 126.983 55.1641 127.23 55.1468 127.49H59.2938ZM60.1908 127.776C60.1908 127.837 60.1908 127.902 60.1908 127.971C60.1908 128.04 60.1864 128.114 60.1778 128.192H55.1338C55.1424 128.495 55.2031 128.781 55.3158 129.05C55.4284 129.319 55.5844 129.553 55.7838 129.752C55.9831 129.951 56.2171 130.112 56.4858 130.233C56.7544 130.346 57.0448 130.402 57.3568 130.402C57.8161 130.402 58.2104 130.298 58.5398 130.09C58.8778 129.873 59.1334 129.626 59.3068 129.349L59.9698 129.869C59.6058 130.328 59.2028 130.658 58.7608 130.857C58.3274 131.056 57.8594 131.156 57.3568 131.156C56.9061 131.156 56.4858 131.078 56.0958 130.922C55.7144 130.757 55.3851 130.532 55.1078 130.246C54.8304 129.96 54.6094 129.622 54.4448 129.232C54.2888 128.842 54.2108 128.417 54.2108 127.958C54.2108 127.499 54.2888 127.074 54.4448 126.684C54.6008 126.294 54.8174 125.956 55.0948 125.67C55.3721 125.384 55.6971 125.163 56.0698 125.007C56.4424 124.842 56.8454 124.76 57.2788 124.76C57.7554 124.76 58.1758 124.842 58.5398 125.007C58.9038 125.163 59.2071 125.38 59.4498 125.657C59.6924 125.926 59.8744 126.242 59.9958 126.606C60.1258 126.97 60.1908 127.36 60.1908 127.776ZM65.3552 125.657H63.6392V129.206C63.6392 129.431 63.6609 129.618 63.7042 129.765C63.7476 129.912 63.8082 130.029 63.8862 130.116C63.9729 130.194 64.0726 130.25 64.1852 130.285C64.2979 130.311 64.4192 130.324 64.5492 130.324C64.6706 130.324 64.7962 130.307 64.9262 130.272C65.0649 130.237 65.1949 130.19 65.3162 130.129L65.3552 130.896C65.1992 130.957 65.0346 131 64.8612 131.026C64.6966 131.061 64.5146 131.078 64.3152 131.078C64.1506 131.078 63.9772 131.056 63.7952 131.013C63.6132 130.97 63.4442 130.887 63.2882 130.766C63.1322 130.645 63.0022 130.48 62.8982 130.272C62.8029 130.064 62.7552 129.791 62.7552 129.453V125.657H61.4942V124.916H62.7552V123.2H63.6392V124.916H65.3552V125.657ZM71.6782 131C71.6609 130.835 71.6479 130.653 71.6392 130.454C71.6305 130.255 71.6262 130.09 71.6262 129.96H71.6002C71.4269 130.315 71.1452 130.606 70.7552 130.831C70.3652 131.048 69.9535 131.156 69.5202 131.156C68.7489 131.156 68.1682 130.926 67.7782 130.467C67.3969 130.008 67.2062 129.401 67.2062 128.647V124.916H68.0902V128.283C68.0902 128.604 68.1162 128.894 68.1682 129.154C68.2202 129.414 68.3069 129.639 68.4282 129.83C68.5582 130.012 68.7272 130.155 68.9352 130.259C69.1519 130.363 69.4205 130.415 69.7412 130.415C69.9752 130.415 70.2005 130.367 70.4172 130.272C70.6425 130.177 70.8419 130.034 71.0152 129.843C71.1885 129.644 71.3272 129.397 71.4312 129.102C71.5352 128.799 71.5872 128.443 71.5872 128.036V124.916H72.4712V129.661C72.4712 129.826 72.4755 130.038 72.4842 130.298C72.4929 130.558 72.5059 130.792 72.5232 131H71.6782ZM75.3319 126.255C75.3319 126.09 75.3276 125.878 75.3189 125.618C75.3102 125.358 75.2972 125.124 75.2799 124.916H76.1249C76.1422 125.081 76.1552 125.263 76.1639 125.462C76.1726 125.661 76.1769 125.826 76.1769 125.956H76.2029C76.3762 125.601 76.6362 125.315 76.9829 125.098C77.3296 124.873 77.7196 124.76 78.1529 124.76C78.2656 124.76 78.3652 124.764 78.4519 124.773C78.5472 124.782 78.6426 124.799 78.7379 124.825L78.6209 125.657C78.5689 125.64 78.4822 125.622 78.3609 125.605C78.2396 125.588 78.1182 125.579 77.9969 125.579C77.7629 125.579 77.5376 125.622 77.3209 125.709C77.1042 125.796 76.9136 125.934 76.7489 126.125C76.5929 126.307 76.4629 126.545 76.3589 126.84C76.2636 127.126 76.2159 127.473 76.2159 127.88V131H75.3319V126.255ZM88.1415 127.074C88.1415 126.545 88.0028 126.151 87.7255 125.891C87.4481 125.631 87.0451 125.501 86.5165 125.501C86.1525 125.501 85.8145 125.566 85.5025 125.696C85.1905 125.826 84.9261 125.999 84.7095 126.216L84.2155 125.631C84.4668 125.38 84.7961 125.172 85.2035 125.007C85.6195 124.842 86.0875 124.76 86.6075 124.76C86.9368 124.76 87.2445 124.808 87.5305 124.903C87.8165 124.99 88.0678 125.124 88.2845 125.306C88.5011 125.488 88.6701 125.718 88.7915 125.995C88.9128 126.272 88.9735 126.597 88.9735 126.97V129.635C88.9735 129.869 88.9821 130.112 88.9995 130.363C89.0168 130.614 89.0428 130.827 89.0775 131H88.2845C88.2585 130.853 88.2368 130.692 88.2195 130.519C88.2021 130.346 88.1935 130.177 88.1935 130.012H88.1675C87.8901 130.419 87.5738 130.714 87.2185 130.896C86.8718 131.069 86.4515 131.156 85.9575 131.156C85.7235 131.156 85.4808 131.121 85.2295 131.052C84.9868 130.991 84.7615 130.887 84.5535 130.74C84.3541 130.593 84.1851 130.402 84.0465 130.168C83.9165 129.934 83.8515 129.648 83.8515 129.31C83.8515 128.842 83.9685 128.474 84.2025 128.205C84.4451 127.928 84.7658 127.724 85.1645 127.594C85.5631 127.455 86.0181 127.369 86.5295 127.334C87.0495 127.291 87.5868 127.269 88.1415 127.269V127.074ZM87.8815 127.958C87.5175 127.958 87.1491 127.975 86.7765 128.01C86.4125 128.036 86.0788 128.097 85.7755 128.192C85.4808 128.279 85.2381 128.409 85.0475 128.582C84.8568 128.755 84.7615 128.985 84.7615 129.271C84.7615 129.488 84.8005 129.67 84.8785 129.817C84.9651 129.964 85.0778 130.086 85.2165 130.181C85.3551 130.268 85.5068 130.333 85.6715 130.376C85.8448 130.411 86.0181 130.428 86.1915 130.428C86.5035 130.428 86.7808 130.376 87.0235 130.272C87.2661 130.159 87.4698 130.012 87.6345 129.83C87.7991 129.639 87.9248 129.423 88.0115 129.18C88.0981 128.937 88.1415 128.682 88.1415 128.413V127.958H87.8815ZM96.7758 129.973C96.5158 130.363 96.1778 130.658 95.7618 130.857C95.3458 131.056 94.9168 131.156 94.4748 131.156C93.9982 131.156 93.5648 131.074 93.1748 130.909C92.7935 130.744 92.4642 130.519 92.1868 130.233C91.9182 129.947 91.7058 129.609 91.5498 129.219C91.4025 128.829 91.3288 128.409 91.3288 127.958C91.3288 127.507 91.4025 127.087 91.5498 126.697C91.7058 126.307 91.9182 125.969 92.1868 125.683C92.4642 125.397 92.7935 125.172 93.1748 125.007C93.5648 124.842 93.9982 124.76 94.4748 124.76C94.9168 124.76 95.3458 124.864 95.7618 125.072C96.1778 125.271 96.5158 125.57 96.7758 125.969H96.8018V121.172H97.6858V131H96.8018V129.973H96.7758ZM92.2648 127.958C92.2648 128.296 92.3168 128.617 92.4208 128.92C92.5248 129.215 92.6722 129.475 92.8628 129.7C93.0622 129.917 93.3048 130.09 93.5908 130.22C93.8768 130.341 94.2018 130.402 94.5658 130.402C94.9038 130.402 95.2158 130.341 95.5018 130.22C95.7878 130.09 96.0348 129.917 96.2428 129.7C96.4508 129.483 96.6112 129.228 96.7238 128.933C96.8452 128.63 96.9058 128.305 96.9058 127.958C96.9058 127.611 96.8452 127.291 96.7238 126.996C96.6112 126.693 96.4508 126.433 96.2428 126.216C96.0348 125.991 95.7878 125.817 95.5018 125.696C95.2158 125.566 94.9038 125.501 94.5658 125.501C94.2018 125.501 93.8768 125.566 93.5908 125.696C93.3048 125.826 93.0622 126.004 92.8628 126.229C92.6722 126.446 92.5248 126.706 92.4208 127.009C92.3168 127.304 92.2648 127.62 92.2648 127.958ZM101.465 131H100.581V124.916H101.465V131ZM101.647 122.576C101.647 122.758 101.582 122.91 101.452 123.031C101.322 123.144 101.179 123.2 101.023 123.2C100.867 123.2 100.724 123.144 100.594 123.031C100.464 122.91 100.399 122.758 100.399 122.576C100.399 122.394 100.464 122.247 100.594 122.134C100.724 122.013 100.867 121.952 101.023 121.952C101.179 121.952 101.322 122.013 101.452 122.134C101.582 122.247 101.647 122.394 101.647 122.576ZM105.222 134.12H104.338V124.916H105.222V125.969H105.261C105.513 125.57 105.846 125.271 106.262 125.072C106.687 124.864 107.116 124.76 107.549 124.76C108.026 124.76 108.455 124.842 108.836 125.007C109.226 125.172 109.556 125.397 109.824 125.683C110.102 125.969 110.314 126.307 110.461 126.697C110.617 127.087 110.695 127.507 110.695 127.958C110.695 128.409 110.617 128.829 110.461 129.219C110.314 129.609 110.102 129.947 109.824 130.233C109.556 130.519 109.226 130.744 108.836 130.909C108.455 131.074 108.026 131.156 107.549 131.156C107.116 131.156 106.687 131.056 106.262 130.857C105.846 130.649 105.513 130.354 105.261 129.973H105.222V134.12ZM109.759 127.958C109.759 127.62 109.707 127.304 109.603 127.009C109.499 126.706 109.348 126.446 109.148 126.229C108.958 126.004 108.719 125.826 108.433 125.696C108.147 125.566 107.822 125.501 107.458 125.501C107.12 125.501 106.808 125.566 106.522 125.696C106.236 125.817 105.989 125.991 105.781 126.216C105.573 126.433 105.409 126.693 105.287 126.996C105.175 127.291 105.118 127.611 105.118 127.958C105.118 128.305 105.175 128.63 105.287 128.933C105.409 129.228 105.573 129.483 105.781 129.7C105.989 129.917 106.236 130.09 106.522 130.22C106.808 130.341 107.12 130.402 107.458 130.402C107.822 130.402 108.147 130.341 108.433 130.22C108.719 130.09 108.958 129.917 109.148 129.7C109.348 129.475 109.499 129.215 109.603 128.92C109.707 128.617 109.759 128.296 109.759 127.958ZM114.007 131H113.123V124.916H114.007V131ZM114.189 122.576C114.189 122.758 114.124 122.91 113.994 123.031C113.864 123.144 113.721 123.2 113.565 123.2C113.409 123.2 113.266 123.144 113.136 123.031C113.006 122.91 112.941 122.758 112.941 122.576C112.941 122.394 113.006 122.247 113.136 122.134C113.266 122.013 113.409 121.952 113.565 121.952C113.721 121.952 113.864 122.013 113.994 122.134C114.124 122.247 114.189 122.394 114.189 122.576ZM120.117 126.359C119.987 126.108 119.788 125.904 119.519 125.748C119.259 125.583 118.96 125.501 118.622 125.501C118.466 125.501 118.31 125.518 118.154 125.553C117.998 125.588 117.859 125.644 117.738 125.722C117.617 125.8 117.517 125.9 117.439 126.021C117.37 126.142 117.335 126.285 117.335 126.45C117.335 126.736 117.452 126.957 117.686 127.113C117.92 127.26 118.288 127.386 118.791 127.49C119.51 127.637 120.039 127.854 120.377 128.14C120.724 128.417 120.897 128.794 120.897 129.271C120.897 129.618 120.828 129.912 120.689 130.155C120.559 130.389 120.386 130.584 120.169 130.74C119.952 130.887 119.705 130.991 119.428 131.052C119.159 131.121 118.886 131.156 118.609 131.156C118.15 131.156 117.703 131.061 117.27 130.87C116.837 130.679 116.481 130.38 116.204 129.973L116.906 129.453C117.062 129.722 117.292 129.947 117.595 130.129C117.898 130.311 118.232 130.402 118.596 130.402C118.787 130.402 118.969 130.385 119.142 130.35C119.315 130.315 119.467 130.255 119.597 130.168C119.727 130.081 119.831 129.973 119.909 129.843C119.987 129.704 120.026 129.535 120.026 129.336C120.026 129.015 119.87 128.777 119.558 128.621C119.255 128.456 118.813 128.305 118.232 128.166C118.05 128.123 117.855 128.071 117.647 128.01C117.448 127.941 117.261 127.845 117.088 127.724C116.915 127.594 116.772 127.434 116.659 127.243C116.546 127.052 116.49 126.814 116.49 126.528C116.49 126.216 116.551 125.952 116.672 125.735C116.793 125.51 116.954 125.328 117.153 125.189C117.361 125.042 117.595 124.933 117.855 124.864C118.115 124.795 118.384 124.76 118.661 124.76C119.086 124.76 119.497 124.855 119.896 125.046C120.295 125.237 120.594 125.505 120.793 125.852L120.117 126.359ZM127.557 126.307C127.41 126.073 127.193 125.882 126.907 125.735C126.63 125.579 126.327 125.501 125.997 125.501C125.642 125.501 125.321 125.566 125.035 125.696C124.749 125.817 124.502 125.991 124.294 126.216C124.095 126.433 123.939 126.693 123.826 126.996C123.722 127.291 123.67 127.611 123.67 127.958C123.67 128.305 123.722 128.625 123.826 128.92C123.939 129.215 124.095 129.475 124.294 129.7C124.494 129.917 124.736 130.09 125.022 130.22C125.308 130.341 125.629 130.402 125.984 130.402C126.374 130.402 126.704 130.328 126.972 130.181C127.241 130.034 127.462 129.843 127.635 129.609L128.298 130.103C128.038 130.424 127.718 130.679 127.336 130.87C126.964 131.061 126.513 131.156 125.984 131.156C125.49 131.156 125.044 131.078 124.645 130.922C124.247 130.757 123.904 130.532 123.618 130.246C123.341 129.96 123.124 129.622 122.968 129.232C122.812 128.842 122.734 128.417 122.734 127.958C122.734 127.499 122.812 127.074 122.968 126.684C123.124 126.294 123.341 125.956 123.618 125.67C123.904 125.384 124.247 125.163 124.645 125.007C125.044 124.842 125.49 124.76 125.984 124.76C126.392 124.76 126.803 124.851 127.219 125.033C127.644 125.206 127.986 125.466 128.246 125.813L127.557 126.307ZM131.093 131H130.209V124.916H131.093V131ZM131.275 122.576C131.275 122.758 131.21 122.91 131.08 123.031C130.95 123.144 130.807 123.2 130.651 123.2C130.495 123.2 130.352 123.144 130.222 123.031C130.092 122.91 130.027 122.758 130.027 122.576C130.027 122.394 130.092 122.247 130.222 122.134C130.352 122.013 130.495 121.952 130.651 121.952C130.807 121.952 130.95 122.013 131.08 122.134C131.21 122.247 131.275 122.394 131.275 122.576ZM134.759 124.916C134.777 125.081 134.79 125.263 134.798 125.462C134.807 125.661 134.811 125.826 134.811 125.956H134.837C135.011 125.601 135.292 125.315 135.682 125.098C136.072 124.873 136.484 124.76 136.917 124.76C137.689 124.76 138.265 124.99 138.646 125.449C139.036 125.908 139.231 126.515 139.231 127.269V131H138.347V127.633C138.347 127.312 138.321 127.022 138.269 126.762C138.217 126.502 138.126 126.281 137.996 126.099C137.875 125.908 137.706 125.761 137.489 125.657C137.281 125.553 137.017 125.501 136.696 125.501C136.462 125.501 136.233 125.549 136.007 125.644C135.791 125.739 135.596 125.887 135.422 126.086C135.249 126.277 135.11 126.524 135.006 126.827C134.902 127.122 134.85 127.473 134.85 127.88V131H133.966V126.255C133.966 126.09 133.962 125.878 133.953 125.618C133.945 125.358 133.932 125.124 133.914 124.916H134.759ZM142.365 132.222C142.608 132.534 142.937 132.798 143.353 133.015C143.778 133.232 144.224 133.34 144.692 133.34C145.126 133.34 145.494 133.275 145.797 133.145C146.101 133.024 146.343 132.855 146.525 132.638C146.716 132.421 146.855 132.166 146.941 131.871C147.028 131.585 147.071 131.277 147.071 130.948V129.804H147.045C146.811 130.185 146.478 130.48 146.044 130.688C145.62 130.896 145.186 131 144.744 131C144.268 131 143.834 130.922 143.444 130.766C143.063 130.61 142.734 130.398 142.456 130.129C142.188 129.852 141.975 129.522 141.819 129.141C141.672 128.76 141.598 128.348 141.598 127.906C141.598 127.473 141.672 127.065 141.819 126.684C141.975 126.303 142.188 125.969 142.456 125.683C142.734 125.397 143.063 125.172 143.444 125.007C143.834 124.842 144.268 124.76 144.744 124.76C145.186 124.76 145.62 124.864 146.044 125.072C146.469 125.28 146.803 125.579 147.045 125.969H147.071V124.916H147.955V130.948C147.955 131.277 147.908 131.628 147.812 132.001C147.726 132.374 147.557 132.716 147.305 133.028C147.063 133.34 146.729 133.6 146.304 133.808C145.88 134.016 145.329 134.12 144.653 134.12C144.09 134.12 143.553 134.012 143.041 133.795C142.53 133.578 142.092 133.279 141.728 132.898L142.365 132.222ZM142.534 127.88C142.534 128.201 142.586 128.504 142.69 128.79C142.794 129.076 142.942 129.327 143.132 129.544C143.332 129.761 143.574 129.934 143.86 130.064C144.146 130.185 144.471 130.246 144.835 130.246C145.173 130.246 145.485 130.19 145.771 130.077C146.057 129.964 146.304 129.804 146.512 129.596C146.72 129.388 146.881 129.141 146.993 128.855C147.115 128.56 147.175 128.235 147.175 127.88C147.175 127.559 147.115 127.256 146.993 126.97C146.881 126.684 146.72 126.433 146.512 126.216C146.304 125.999 146.057 125.826 145.771 125.696C145.485 125.566 145.173 125.501 144.835 125.501C144.471 125.501 144.146 125.566 143.86 125.696C143.574 125.826 143.332 125.999 143.132 126.216C142.942 126.433 142.794 126.684 142.69 126.97C142.586 127.256 142.534 127.559 142.534 127.88ZM159.185 127.49C159.159 126.918 158.973 126.446 158.626 126.073C158.288 125.692 157.803 125.501 157.17 125.501C156.875 125.501 156.602 125.557 156.351 125.67C156.1 125.774 155.879 125.921 155.688 126.112C155.497 126.294 155.346 126.506 155.233 126.749C155.12 126.983 155.055 127.23 155.038 127.49H159.185ZM160.082 127.776C160.082 127.837 160.082 127.902 160.082 127.971C160.082 128.04 160.078 128.114 160.069 128.192H155.025C155.034 128.495 155.094 128.781 155.207 129.05C155.32 129.319 155.476 129.553 155.675 129.752C155.874 129.951 156.108 130.112 156.377 130.233C156.646 130.346 156.936 130.402 157.248 130.402C157.707 130.402 158.102 130.298 158.431 130.09C158.769 129.873 159.025 129.626 159.198 129.349L159.861 129.869C159.497 130.328 159.094 130.658 158.652 130.857C158.219 131.056 157.751 131.156 157.248 131.156C156.797 131.156 156.377 131.078 155.987 130.922C155.606 130.757 155.276 130.532 154.999 130.246C154.722 129.96 154.501 129.622 154.336 129.232C154.18 128.842 154.102 128.417 154.102 127.958C154.102 127.499 154.18 127.074 154.336 126.684C154.492 126.294 154.709 125.956 154.986 125.67C155.263 125.384 155.588 125.163 155.961 125.007C156.334 124.842 156.737 124.76 157.17 124.76C157.647 124.76 158.067 124.842 158.431 125.007C158.795 125.163 159.098 125.38 159.341 125.657C159.584 125.926 159.766 126.242 159.887 126.606C160.017 126.97 160.082 127.36 160.082 127.776ZM163.414 131H162.53V121.172H163.414V131ZM167.196 131H166.312V124.916H167.196V131ZM167.378 122.576C167.378 122.758 167.313 122.91 167.183 123.031C167.053 123.144 166.91 123.2 166.754 123.2C166.598 123.2 166.455 123.144 166.325 123.031C166.195 122.91 166.13 122.758 166.13 122.576C166.13 122.394 166.195 122.247 166.325 122.134C166.455 122.013 166.598 121.952 166.754 121.952C166.91 121.952 167.053 122.013 167.183 122.134C167.313 122.247 167.378 122.394 167.378 122.576ZM172.812 125.657H171.096V129.206C171.096 129.431 171.118 129.618 171.161 129.765C171.204 129.912 171.265 130.029 171.343 130.116C171.43 130.194 171.529 130.25 171.642 130.285C171.755 130.311 171.876 130.324 172.006 130.324C172.127 130.324 172.253 130.307 172.383 130.272C172.522 130.237 172.652 130.19 172.773 130.129L172.812 130.896C172.656 130.957 172.491 131 172.318 131.026C172.153 131.061 171.971 131.078 171.772 131.078C171.607 131.078 171.434 131.056 171.252 131.013C171.07 130.97 170.901 130.887 170.745 130.766C170.589 130.645 170.459 130.48 170.355 130.272C170.26 130.064 170.212 129.791 170.212 129.453V125.657H168.951V124.916H170.212V123.2H171.096V124.916H172.812V125.657ZM175.937 130.376C175.937 130.558 175.872 130.723 175.742 130.87C175.612 131.009 175.443 131.078 175.235 131.078C175.027 131.078 174.858 131.009 174.728 130.87C174.598 130.723 174.533 130.558 174.533 130.376C174.533 130.194 174.598 130.034 174.728 129.895C174.858 129.748 175.027 129.674 175.235 129.674C175.443 129.674 175.612 129.748 175.742 129.895C175.872 130.034 175.937 130.194 175.937 130.376ZM186.499 123.278C186.3 123.001 186.044 122.78 185.732 122.615C185.42 122.442 185.043 122.355 184.601 122.355C184.376 122.355 184.146 122.39 183.912 122.459C183.678 122.528 183.466 122.637 183.275 122.784C183.085 122.923 182.929 123.1 182.807 123.317C182.695 123.534 182.638 123.789 182.638 124.084C182.638 124.379 182.695 124.621 182.807 124.812C182.92 125.003 183.067 125.167 183.249 125.306C183.44 125.436 183.652 125.544 183.886 125.631C184.129 125.718 184.38 125.804 184.64 125.891C184.961 125.995 185.282 126.108 185.602 126.229C185.932 126.35 186.226 126.511 186.486 126.71C186.746 126.901 186.959 127.148 187.123 127.451C187.288 127.746 187.37 128.123 187.37 128.582C187.37 129.041 187.279 129.44 187.097 129.778C186.924 130.107 186.694 130.38 186.408 130.597C186.131 130.814 185.81 130.974 185.446 131.078C185.091 131.182 184.731 131.234 184.367 131.234C184.09 131.234 183.813 131.204 183.535 131.143C183.258 131.091 182.994 131.009 182.742 130.896C182.491 130.783 182.257 130.64 182.04 130.467C181.824 130.294 181.633 130.094 181.468 129.869L182.274 129.271C182.474 129.6 182.751 129.878 183.106 130.103C183.47 130.32 183.895 130.428 184.38 130.428C184.614 130.428 184.853 130.393 185.095 130.324C185.338 130.246 185.555 130.133 185.745 129.986C185.945 129.83 186.105 129.644 186.226 129.427C186.356 129.202 186.421 128.942 186.421 128.647C186.421 128.326 186.356 128.062 186.226 127.854C186.105 127.637 185.94 127.46 185.732 127.321C185.524 127.174 185.286 127.052 185.017 126.957C184.749 126.862 184.467 126.766 184.172 126.671C183.869 126.576 183.57 126.467 183.275 126.346C182.981 126.225 182.716 126.069 182.482 125.878C182.248 125.679 182.058 125.436 181.91 125.15C181.772 124.864 181.702 124.513 181.702 124.097C181.702 123.655 181.789 123.274 181.962 122.953C182.144 122.632 182.378 122.368 182.664 122.16C182.95 121.952 183.267 121.8 183.613 121.705C183.96 121.61 184.302 121.562 184.64 121.562C185.264 121.562 185.797 121.675 186.239 121.9C186.681 122.117 187.015 122.377 187.24 122.68L186.499 123.278ZM190.743 131H189.859V124.916H190.743V131ZM190.925 122.576C190.925 122.758 190.86 122.91 190.73 123.031C190.6 123.144 190.457 123.2 190.301 123.2C190.145 123.2 190.002 123.144 189.872 123.031C189.742 122.91 189.677 122.758 189.677 122.576C189.677 122.394 189.742 122.247 189.872 122.134C190.002 122.013 190.145 121.952 190.301 121.952C190.457 121.952 190.6 122.013 190.73 122.134C190.86 122.247 190.925 122.394 190.925 122.576ZM196.359 125.657H194.643V129.206C194.643 129.431 194.665 129.618 194.708 129.765C194.752 129.912 194.812 130.029 194.89 130.116C194.977 130.194 195.077 130.25 195.189 130.285C195.302 130.311 195.423 130.324 195.553 130.324C195.675 130.324 195.8 130.307 195.93 130.272C196.069 130.237 196.199 130.19 196.32 130.129L196.359 130.896C196.203 130.957 196.039 131 195.865 131.026C195.701 131.061 195.519 131.078 195.319 131.078C195.155 131.078 194.981 131.056 194.799 131.013C194.617 130.97 194.448 130.887 194.292 130.766C194.136 130.645 194.006 130.48 193.902 130.272C193.807 130.064 193.759 129.791 193.759 129.453V125.657H192.498V124.916H193.759V123.2H194.643V124.916H196.359V125.657ZM10.162 146.973C9.91067 147.354 9.57267 147.649 9.148 147.857C8.732 148.056 8.30733 148.156 7.874 148.156C7.39733 148.156 6.964 148.074 6.574 147.909C6.19267 147.744 5.86333 147.519 5.586 147.233C5.31733 146.947 5.105 146.609 4.949 146.219C4.80167 145.829 4.728 145.409 4.728 144.958C4.728 144.507 4.80167 144.087 4.949 143.697C5.105 143.307 5.31733 142.969 5.586 142.683C5.86333 142.397 6.19267 142.172 6.574 142.007C6.964 141.842 7.39733 141.76 7.874 141.76C8.30733 141.76 8.732 141.864 9.148 142.072C9.57267 142.271 9.91067 142.57 10.162 142.969H10.201V141.916H11.085V151.12H10.201V146.973H10.162ZM5.664 144.958C5.664 145.296 5.716 145.617 5.82 145.92C5.924 146.215 6.07133 146.475 6.262 146.7C6.46133 146.917 6.704 147.09 6.99 147.22C7.276 147.341 7.601 147.402 7.965 147.402C8.303 147.402 8.615 147.341 8.901 147.22C9.187 147.09 9.434 146.917 9.642 146.7C9.85 146.483 10.0103 146.228 10.123 145.933C10.2443 145.63 10.305 145.305 10.305 144.958C10.305 144.611 10.2443 144.291 10.123 143.996C10.0103 143.693 9.85 143.433 9.642 143.216C9.434 142.991 9.187 142.817 8.901 142.696C8.615 142.566 8.303 142.501 7.965 142.501C7.601 142.501 7.276 142.566 6.99 142.696C6.704 142.826 6.46133 143.004 6.262 143.229C6.07133 143.446 5.924 143.706 5.82 144.009C5.716 144.304 5.664 144.62 5.664 144.958ZM18.362 148C18.3446 147.835 18.3316 147.653 18.323 147.454C18.3143 147.255 18.31 147.09 18.31 146.96H18.284C18.1106 147.315 17.829 147.606 17.439 147.831C17.049 148.048 16.6373 148.156 16.204 148.156C15.4326 148.156 14.852 147.926 14.462 147.467C14.0806 147.008 13.89 146.401 13.89 145.647V141.916H14.774V145.283C14.774 145.604 14.8 145.894 14.852 146.154C14.904 146.414 14.9906 146.639 15.112 146.83C15.242 147.012 15.411 147.155 15.619 147.259C15.8356 147.363 16.1043 147.415 16.425 147.415C16.659 147.415 16.8843 147.367 17.101 147.272C17.3263 147.177 17.5256 147.034 17.699 146.843C17.8723 146.644 18.011 146.397 18.115 146.102C18.219 145.799 18.271 145.443 18.271 145.036V141.916H19.155V146.661C19.155 146.826 19.1593 147.038 19.168 147.298C19.1766 147.558 19.1896 147.792 19.207 148H18.362ZM22.9127 148H22.0287V141.916H22.9127V148ZM23.0947 139.576C23.0947 139.758 23.0297 139.91 22.8997 140.031C22.7697 140.144 22.6267 140.2 22.4707 140.2C22.3147 140.2 22.1717 140.144 22.0417 140.031C21.9117 139.91 21.8467 139.758 21.8467 139.576C21.8467 139.394 21.9117 139.247 22.0417 139.134C22.1717 139.013 22.3147 138.952 22.4707 138.952C22.6267 138.952 22.7697 139.013 22.8997 139.134C23.0297 139.247 23.0947 139.394 23.0947 139.576ZM29.0227 143.359C28.8927 143.108 28.6933 142.904 28.4247 142.748C28.1647 142.583 27.8657 142.501 27.5277 142.501C27.3717 142.501 27.2157 142.518 27.0597 142.553C26.9037 142.588 26.765 142.644 26.6437 142.722C26.5223 142.8 26.4227 142.9 26.3447 143.021C26.2753 143.142 26.2407 143.285 26.2407 143.45C26.2407 143.736 26.3577 143.957 26.5917 144.113C26.8257 144.26 27.194 144.386 27.6967 144.49C28.416 144.637 28.9447 144.854 29.2827 145.14C29.6293 145.417 29.8027 145.794 29.8027 146.271C29.8027 146.618 29.7333 146.912 29.5947 147.155C29.4647 147.389 29.2913 147.584 29.0747 147.74C28.858 147.887 28.611 147.991 28.3337 148.052C28.065 148.121 27.792 148.156 27.5147 148.156C27.0553 148.156 26.609 148.061 26.1757 147.87C25.7423 147.679 25.387 147.38 25.1097 146.973L25.8117 146.453C25.9677 146.722 26.1973 146.947 26.5007 147.129C26.804 147.311 27.1377 147.402 27.5017 147.402C27.6923 147.402 27.8743 147.385 28.0477 147.35C28.221 147.315 28.3727 147.255 28.5027 147.168C28.6327 147.081 28.7367 146.973 28.8147 146.843C28.8927 146.704 28.9317 146.535 28.9317 146.336C28.9317 146.015 28.7757 145.777 28.4637 145.621C28.1603 145.456 27.7183 145.305 27.1377 145.166C26.9557 145.123 26.7607 145.071 26.5527 145.01C26.3533 144.941 26.167 144.845 25.9937 144.724C25.8203 144.594 25.6773 144.434 25.5647 144.243C25.452 144.052 25.3957 143.814 25.3957 143.528C25.3957 143.216 25.4563 142.952 25.5777 142.735C25.699 142.51 25.8593 142.328 26.0587 142.189C26.2667 142.042 26.5007 141.933 26.7607 141.864C27.0207 141.795 27.2893 141.76 27.5667 141.76C27.9913 141.76 28.403 141.855 28.8017 142.046C29.2003 142.237 29.4993 142.505 29.6987 142.852L29.0227 143.359ZM38.348 148H37.373L34.89 141.916H35.878L37.854 147.064H37.88L39.869 141.916H40.818L38.348 148ZM43.6167 148H42.7327V141.916H43.6167V148ZM43.7987 139.576C43.7987 139.758 43.7337 139.91 43.6037 140.031C43.4737 140.144 43.3307 140.2 43.1747 140.2C43.0187 140.2 42.8757 140.144 42.7457 140.031C42.6157 139.91 42.5507 139.758 42.5507 139.576C42.5507 139.394 42.6157 139.247 42.7457 139.134C42.8757 139.013 43.0187 138.952 43.1747 138.952C43.3307 138.952 43.4737 139.013 43.6037 139.134C43.7337 139.247 43.7987 139.394 43.7987 139.576ZM49.2327 142.657H47.5167V146.206C47.5167 146.431 47.5384 146.618 47.5817 146.765C47.625 146.912 47.6857 147.029 47.7637 147.116C47.8504 147.194 47.95 147.25 48.0627 147.285C48.1754 147.311 48.2967 147.324 48.4267 147.324C48.548 147.324 48.6737 147.307 48.8037 147.272C48.9424 147.237 49.0724 147.19 49.1937 147.129L49.2327 147.896C49.0767 147.957 48.912 148 48.7387 148.026C48.574 148.061 48.392 148.078 48.1927 148.078C48.028 148.078 47.8547 148.056 47.6727 148.013C47.4907 147.97 47.3217 147.887 47.1657 147.766C47.0097 147.645 46.8797 147.48 46.7757 147.272C46.6804 147.064 46.6327 146.791 46.6327 146.453V142.657H45.3717V141.916H46.6327V140.2H47.5167V141.916H49.2327V142.657ZM54.9707 144.074C54.9707 143.545 54.832 143.151 54.5547 142.891C54.2773 142.631 53.8743 142.501 53.3457 142.501C52.9817 142.501 52.6437 142.566 52.3317 142.696C52.0197 142.826 51.7553 142.999 51.5387 143.216L51.0447 142.631C51.296 142.38 51.6253 142.172 52.0327 142.007C52.4487 141.842 52.9167 141.76 53.4367 141.76C53.766 141.76 54.0737 141.808 54.3597 141.903C54.6457 141.99 54.897 142.124 55.1137 142.306C55.3303 142.488 55.4993 142.718 55.6207 142.995C55.742 143.272 55.8027 143.597 55.8027 143.97V146.635C55.8027 146.869 55.8113 147.112 55.8287 147.363C55.846 147.614 55.872 147.827 55.9067 148H55.1137C55.0877 147.853 55.066 147.692 55.0487 147.519C55.0313 147.346 55.0227 147.177 55.0227 147.012H54.9967C54.7193 147.419 54.403 147.714 54.0477 147.896C53.701 148.069 53.2807 148.156 52.7867 148.156C52.5527 148.156 52.31 148.121 52.0587 148.052C51.816 147.991 51.5907 147.887 51.3827 147.74C51.1833 147.593 51.0143 147.402 50.8757 147.168C50.7457 146.934 50.6807 146.648 50.6807 146.31C50.6807 145.842 50.7977 145.474 51.0317 145.205C51.2743 144.928 51.595 144.724 51.9937 144.594C52.3923 144.455 52.8473 144.369 53.3587 144.334C53.8787 144.291 54.416 144.269 54.9707 144.269V144.074ZM54.7107 144.958C54.3467 144.958 53.9783 144.975 53.6057 145.01C53.2417 145.036 52.908 145.097 52.6047 145.192C52.31 145.279 52.0673 145.409 51.8767 145.582C51.686 145.755 51.5907 145.985 51.5907 146.271C51.5907 146.488 51.6297 146.67 51.7077 146.817C51.7943 146.964 51.907 147.086 52.0457 147.181C52.1843 147.268 52.336 147.333 52.5007 147.376C52.674 147.411 52.8473 147.428 53.0207 147.428C53.3327 147.428 53.61 147.376 53.8527 147.272C54.0953 147.159 54.299 147.012 54.4637 146.83C54.6283 146.639 54.754 146.423 54.8407 146.18C54.9273 145.937 54.9707 145.682 54.9707 145.413V144.958H54.7107ZM63.241 144.49C63.215 143.918 63.0287 143.446 62.682 143.073C62.344 142.692 61.8587 142.501 61.226 142.501C60.9313 142.501 60.6583 142.557 60.407 142.67C60.1557 142.774 59.9347 142.921 59.744 143.112C59.5533 143.294 59.4017 143.506 59.289 143.749C59.1763 143.983 59.1113 144.23 59.094 144.49H63.241ZM64.138 144.776C64.138 144.837 64.138 144.902 64.138 144.971C64.138 145.04 64.1337 145.114 64.125 145.192H59.081C59.0897 145.495 59.1503 145.781 59.263 146.05C59.3757 146.319 59.5317 146.553 59.731 146.752C59.9303 146.951 60.1643 147.112 60.433 147.233C60.7017 147.346 60.992 147.402 61.304 147.402C61.7633 147.402 62.1577 147.298 62.487 147.09C62.825 146.873 63.0807 146.626 63.254 146.349L63.917 146.869C63.553 147.328 63.15 147.658 62.708 147.857C62.2747 148.056 61.8067 148.156 61.304 148.156C60.8533 148.156 60.433 148.078 60.043 147.922C59.6617 147.757 59.3323 147.532 59.055 147.246C58.7777 146.96 58.5567 146.622 58.392 146.232C58.236 145.842 58.158 145.417 58.158 144.958C58.158 144.499 58.236 144.074 58.392 143.684C58.548 143.294 58.7647 142.956 59.042 142.67C59.3193 142.384 59.6443 142.163 60.017 142.007C60.3897 141.842 60.7927 141.76 61.226 141.76C61.7027 141.76 62.123 141.842 62.487 142.007C62.851 142.163 63.1543 142.38 63.397 142.657C63.6397 142.926 63.8217 143.242 63.943 143.606C64.073 143.97 64.138 144.36 64.138 144.776Z" fill="#4F4F4F"/>
<g filter="url(#filter0_d_1_38)">
<rect x="4" width="48" height="48" rx="8" fill="white"/>
</g>
<path d="M28 30.75C27.59 30.75 27.25 30.41 27.25 30V29C27.25 28.59 27.59 28.25 28 28.25C28.41 28.25 28.75 28.59 28.75 29V30C28.75 30.41 28.41 30.75 28 30.75Z" fill="#647B64"/>
<path d="M28 34.75C27.59 34.75 27.25 34.41 27.25 34V33C27.25 32.59 27.59 32.25 28 32.25C28.41 32.25 28.75 32.59 28.75 33V34C28.75 34.41 28.41 34.75 28 34.75Z" fill="#647B64"/>
<path d="M18 34.75C17.94 34.75 17.88 34.74 17.82 34.73C17.42 34.63 17.17 34.22 17.27 33.82L18.27 29.82C18.37 29.42 18.77 29.17 19.18 29.27C19.58 29.37 19.83 29.78 19.73 30.18L18.73 34.18C18.64 34.52 18.34 34.75 18 34.75Z" fill="#647B64"/>
<path d="M37.7526 34.5026C37.4126 34.5026 37.1126 34.2726 37.0226 33.9326L36.0226 29.9326C35.9226 29.5326 36.1626 29.1226 36.5726 29.0226C36.9726 28.9226 37.3826 29.1626 37.4826 29.5726L38.4826 33.5726C38.5826 33.9726 38.3426 34.3826 37.9326 34.4826C37.8726 34.4926 37.8126 34.5026 37.7526 34.5026Z" fill="#647B64"/>
<path d="M35.14 17.3C35.14 17.6 34.89 17.84 34.6 17.84H21.53C21.23 17.84 20.99 17.59 20.99 17.3C20.99 17 21.24 16.76 21.53 16.76H22.27L22.55 15.45C22.81 14.17 23.35 13 25.51 13H30.6C32.76 13 33.31 14.17 33.57 15.44L33.85 16.75H34.59C34.89 16.75 35.14 17 35.14 17.3Z" fill="#647B64"/>
<path d="M35.45 21.4C35.34 20.2 35.02 18.93 32.69 18.93H23.43C21.1 18.93 20.79 20.21 20.67 21.4L20.26 25.82C20.21 26.37 20.39 26.92 20.77 27.34C21.16 27.76 21.7 28 22.28 28H23.64C24.82 28 25.04 27.33 25.19 26.88L25.34 26.44C25.51 25.94 25.55 25.82 26.2 25.82H29.92C30.57 25.82 30.59 25.89 30.78 26.44L30.93 26.88C31.07 27.33 31.3 28 32.47 28H33.83C34.4 28 34.95 27.76 35.34 27.34C35.72 26.93 35.9 26.37 35.85 25.82L35.45 21.4ZM25.88 22.92H23.71C23.41 22.92 23.17 22.67 23.17 22.38C23.17 22.09 23.42 21.84 23.71 21.84H25.89C26.19 21.84 26.43 22.09 26.43 22.38C26.43 22.67 26.18 22.92 25.88 22.92ZM32.41 22.92H30.23C29.93 22.92 29.69 22.67 29.69 22.38C29.69 22.09 29.94 21.84 30.23 21.84H32.41C32.71 21.84 32.95 22.09 32.95 22.38C32.95 22.67 32.71 22.92 32.41 22.92Z" fill="#647B64"/>
<defs>
<filter id="filter0_d_1_38" x="0" y="0" width="56" height="56" filterUnits="userSpaceOnUse" color-interpolation-filters="sRGB">
<feFlood flood-opacity="0" result="BackgroundImageFix"/>
<feColorMatrix in="SourceAlpha" type="matrix" values="0 0 0 0 0 0 0 0 0 0 0 0 0 0 0 0 0 0 127 0" result="hardAlpha"/>
<feOffset dy="4"/>
<feGaussianBlur stdDeviation="2"/>
<feColorMatrix type="matrix" values="0 0 0 0 0 0 0 0 0 0 0 0 0 0 0 0 0 0 0.04 0"/>
<feBlend mode="normal" in2="BackgroundImageFix" result="effect1_dropShadow_1_38"/>
<feBlend mode="normal" in="SourceGraphic" in2="effect1_dropShadow_1_38" result="shape"/>
</filter>
</defs>
</svg>
